<svg width="24" height="24" viewBox="0 0 24 24" fill="none" xmlns="http://www.w3.org/2000/svg">
<path d="M20.438 22.008C20.4378 22.1865 20.3896 22.3616 20.2983 22.5149C20.207 22.6682 20.0761 22.7942 19.9194 22.8794C19.7626 22.9646 19.5857 23.0061 19.4074 22.9993C19.2291 22.9926 19.0559 22.9379 18.906 22.841L12 18.373L5.09401 22.84C4.94428 22.9372 4.7711 22.9921 4.59274 22.9991C4.41438 23.0061 4.23744 22.9648 4.08059 22.8796C3.92373 22.7944 3.79276 22.6685 3.70149 22.5151C3.61022 22.3617 3.56204 22.1865 3.56201 22.008V1.993C3.56201 1.72964 3.66663 1.47707 3.85285 1.29085C4.03908 1.10462 4.29165 1 4.55501 1H19.445C19.5755 0.999608 19.7048 1.02502 19.8255 1.07479C19.9461 1.12455 20.0558 1.19768 20.1481 1.28996C20.2403 1.38225 20.3135 1.49188 20.3632 1.61253C20.413 1.73319 20.4384 1.86249 20.438 1.993V22.008Z" fill="#E0EBFD"/>
<path d="M12 1H4.55501C4.29165 1 4.03908 1.10462 3.85285 1.29084C3.66663 1.47707 3.56201 1.72964 3.56201 1.993V22.008C3.56219 22.1864 3.61045 22.3616 3.70172 22.5149C3.79299 22.6682 3.9239 22.7942 4.08067 22.8794C4.23744 22.9646 4.41429 23.0061 4.59261 22.9993C4.77093 22.9925 4.94414 22.9379 5.09401 22.841L12 18.373V1Z" fill="#E0EBFD"/>
<path d="M20.438 22.008C20.4378 22.1865 20.3896 22.3616 20.2983 22.5149C20.207 22.6682 20.0761 22.7942 19.9194 22.8794C19.7626 22.9646 19.5857 23.0061 19.4074 22.9993C19.2291 22.9926 19.0559 22.9379 18.906 22.841L12 18.373L5.09401 22.84C4.94428 22.9372 4.7711 22.9921 4.59274 22.9991C4.41438 23.0061 4.23744 22.9648 4.08059 22.8796C3.92373 22.7944 3.79276 22.6685 3.70149 22.5151C3.61022 22.3617 3.56204 22.1865 3.56201 22.008V1.993C3.56201 1.72964 3.66663 1.47707 3.85285 1.29085C4.03908 1.10462 4.29165 1 4.55501 1H19.445C19.5755 0.999608 19.7048 1.02502 19.8255 1.07479C19.9461 1.12455 20.0558 1.19768 20.1481 1.28996C20.2403 1.38225 20.3135 1.49188 20.3632 1.61253C20.413 1.73319 20.4384 1.86249 20.438 1.993V22.008Z" stroke="#191919" stroke-linecap="round" stroke-linejoin="round"/>
<path d="M12.584 5.45L13.856 7.952H16.338C16.4627 7.94807 16.5856 7.98253 16.6901 8.05073C16.7946 8.11894 16.8756 8.21758 16.9221 8.33333C16.9687 8.44907 16.9786 8.57634 16.9505 8.6979C16.9224 8.81946 16.8576 8.92945 16.765 9.013L14.615 11.26L15.806 14C15.8594 14.1254 15.872 14.2645 15.8418 14.3975C15.8116 14.5304 15.7403 14.6505 15.6379 14.7406C15.5356 14.8306 15.4074 14.8861 15.2717 14.8991C15.136 14.9121 14.9996 14.882 14.882 14.813L12 13.193L9.12098 14.813C9.00327 14.8806 8.86735 14.9097 8.73228 14.8961C8.59722 14.8825 8.46979 14.827 8.36788 14.7373C8.26597 14.6477 8.19469 14.5284 8.16404 14.3961C8.13339 14.2639 8.14491 14.1254 8.19698 14L9.38798 11.259L7.23498 9.012C7.14159 8.92859 7.07622 8.81837 7.04783 8.69642C7.01943 8.57446 7.02938 8.44671 7.07632 8.33062C7.12325 8.21453 7.20489 8.11576 7.31008 8.04781C7.41526 7.97987 7.53886 7.94606 7.66398 7.951H10.145L11.417 5.449C11.4721 5.34172 11.5557 5.25171 11.6587 5.18887C11.7616 5.12602 11.8799 5.09277 12.0005 5.09277C12.1211 5.09277 12.2394 5.12602 12.3423 5.18887C12.4452 5.25171 12.5289 5.34272 12.584 5.45Z" fill="#FFEF5E"/>
<path d="M8.81309 12.582L13.7171 7.67798L12.5831 5.44998C12.5279 5.34296 12.4443 5.2532 12.3414 5.19054C12.2386 5.12787 12.1205 5.09473 12.0001 5.09473C11.8797 5.09473 11.7616 5.12787 11.6587 5.19054C11.5559 5.2532 11.4723 5.34296 11.4171 5.44998L10.1411 7.95198H7.66009C7.53506 7.94733 7.41165 7.98143 7.30674 8.0496C7.20184 8.11778 7.12056 8.21671 7.07404 8.33285C7.02752 8.449 7.01802 8.57668 7.04685 8.69842C7.07568 8.82017 7.14142 8.93003 7.23509 9.01298L9.38509 11.259L8.81309 12.582Z" fill="#FFF9BF"/>
<path d="M12.584 5.45L13.856 7.952H16.338C16.4627 7.94807 16.5856 7.98253 16.6901 8.05073C16.7946 8.11894 16.8756 8.21758 16.9221 8.33333C16.9687 8.44907 16.9786 8.57634 16.9505 8.6979C16.9224 8.81946 16.8576 8.92945 16.765 9.013L14.615 11.26L15.806 14C15.8594 14.1254 15.872 14.2645 15.8418 14.3975C15.8116 14.5304 15.7403 14.6505 15.6379 14.7406C15.5356 14.8306 15.4074 14.8861 15.2717 14.8991C15.136 14.9121 14.9996 14.882 14.882 14.813L12 13.193L9.12098 14.813C9.00327 14.8806 8.86735 14.9097 8.73228 14.8961C8.59722 14.8825 8.46979 14.827 8.36788 14.7373C8.26597 14.6477 8.19469 14.5284 8.16404 14.3961C8.13339 14.2639 8.14491 14.1254 8.19698 14L9.38798 11.259L7.23498 9.012C7.14159 8.92859 7.07622 8.81837 7.04783 8.69642C7.01943 8.57446 7.02938 8.44671 7.07632 8.33062C7.12325 8.21453 7.20489 8.11576 7.31008 8.04781C7.41526 7.97987 7.53886 7.94606 7.66398 7.951H10.145L11.417 5.449C11.4721 5.34172 11.5557 5.25171 11.6587 5.18887C11.7616 5.12602 11.8799 5.09277 12.0005 5.09277C12.1211 5.09277 12.2394 5.12602 12.3423 5.18887C12.4452 5.25171 12.5289 5.34272 12.584 5.45Z" stroke="#191919" stroke-linecap="round" stroke-linejoin="round"/>
</svg>
