<svg width="12" height="12" viewBox="0 0 12 12" fill="none" xmlns="http://www.w3.org/2000/svg">
<path d="M6.58398 1.45L7.85598 3.952H10.338C10.4627 3.94807 10.5856 3.98253 10.6901 4.05073C10.7946 4.11894 10.8756 4.21758 10.9221 4.33333C10.9687 4.44907 10.9786 4.57634 10.9505 4.6979C10.9224 4.81946 10.8576 4.92945 10.765 5.013L8.61498 7.26L9.80598 10C9.85944 10.1254 9.87198 10.2645 9.8418 10.3975C9.81163 10.5304 9.74028 10.6505 9.63792 10.7406C9.53556 10.8306 9.4074 10.8861 9.27167 10.8991C9.13595 10.9121 8.99958 10.882 8.88198 10.813L5.99998 9.193L3.12098 10.813C3.00327 10.8806 2.86735 10.9097 2.73228 10.8961C2.59722 10.8825 2.46979 10.827 2.36788 10.7373C2.26597 10.6477 2.19469 10.5284 2.16404 10.3961C2.13339 10.2639 2.14491 10.1254 2.19698 10L3.38798 7.259L1.23498 5.012C1.14159 4.92859 1.07622 4.81837 1.04783 4.69642C1.01943 4.57446 1.02938 4.44671 1.07632 4.33062C1.12325 4.21453 1.20489 4.11576 1.31008 4.04781C1.41526 3.97987 1.53886 3.94606 1.66398 3.951H4.14498L5.41698 1.449C5.4721 1.34172 5.55572 1.25171 5.65866 1.18887C5.7616 1.12602 5.87987 1.09277 6.00048 1.09277C6.12109 1.09277 6.23936 1.12602 6.3423 1.18887C6.44524 1.25171 6.52887 1.34272 6.58398 1.45Z" stroke="#191919" stroke-linecap="round" stroke-linejoin="round"/>
</svg>
